# xmcd CD database file
#
# Track frame offsets:
#	150
#	18567
#	38442
#	56555
#	77552
#	98262
#	119745
#	136492
#	156685
#	174122
#	193282
#	214130
#	230155
#
# Disc length: 3317 seconds
#
# Revision: 6
# Processed by: cddbd v1.5.2PL0 Copyright (c) Steve Scherf et al.
# Submitted via: CDex 1.70beta3
#
DISCID=b10cf30d
DTITLE=Gloria Estefan - Into The Light
DYEAR=1991
DGENRE=Latin Pop
TTITLE0=Gloria Estefan - Into The Light - 01 - Coming Out Of The Dark
TTITLE1=Gloria Estefan - Into The Light - 02 - Seal Our Fate
TTITLE2=Gloria Estefan - Into The Light - 03 - What Goes Around
TTITLE3=Gloria Estefan - Into The Light - 04 - Nayib's Song (I Am Here For You)
TTITLE4=Gloria Estefan - Into The Light - 05 - Remember Me With Love
TTITLE5=Gloria Estefan - Into The Light - 06 - Heart With Your Name On It
TTITLE6=Gloria Estefan - Into The Light - 07 - Sex In The 90's
TTITLE7=Gloria Estefan - Into The Light - 08 - Close My Eyes
TTITLE8=Gloria Estefan - Into The Light - 09 - Light Of Love
TTITLE9=Gloria Estefan - Into The Light - 10 - Can't Forget You
TTITLE10=Gloria Estefan - Into The Light - 11 - Live For Loving You
TTITLE11=Gloria Estefan - Into The Light - 12 - Mama Yo Can't Go
TTITLE12=Gloria Estefan - Into The Light - 13 - Desde La Oscuridad (Coming Out Of The Dark - Spanish Version)
EXTD=YEAR: 1991
EXTT0=
EXTT1=
EXTT2=
EXTT3=
EXTT4=
EXTT5=
EXTT6=
EXTT7=
EXTT8=
EXTT9=
EXTT10=
EXTT11=
EXTT12=
PLAYORDER=
